<mxfile host="Electron" modified="2024-03-08T13:42:45.977Z" agent="Mozilla/5.0 (Windows NT 10.0; Win64; x64) AppleWebKit/537.36 (KHTML, like Gecko) draw.io/23.1.5 Chrome/120.0.6099.109 Electron/28.1.0 Safari/537.36" etag="qhHu-pBET4H61pLo2Eac" version="23.1.5" type="device">
  <diagram name="第 1 页" id="i4V2JyNXoijkeuw6JiUO">
    <mxGraphModel dx="1853" dy="496" grid="1" gridSize="10" guides="1" tooltips="1" connect="1" arrows="1" fold="1" page="1" pageScale="1" pageWidth="827" pageHeight="1169" math="0" shadow="0">
      <root>
        <mxCell id="0" />
        <mxCell id="1" parent="0" />
        <mxCell id="pLBirmpmlKTclHateSVN-7" value="" style="rounded=1;whiteSpace=wrap;html=1;" parent="1" vertex="1">
          <mxGeometry x="-90" y="131.39" width="310" height="267.22" as="geometry" />
        </mxCell>
        <mxCell id="pLBirmpmlKTclHateSVN-4" value="" style="whiteSpace=wrap;html=1;aspect=fixed;" parent="1" vertex="1">
          <mxGeometry x="368.06" y="380" width="94.44" height="94.44" as="geometry" />
        </mxCell>
        <mxCell id="pLBirmpmlKTclHateSVN-2" value="" style="shape=image;verticalLabelPosition=bottom;labelBackgroundColor=default;verticalAlign=top;aspect=fixed;imageAspect=0;image=https://github.com/kubernetes/community/raw/master/icons/png/resources/labeled/pod-128.png;" parent="1" vertex="1">
          <mxGeometry x="376.28000000000003" y="389.44" width="78" height="75.56" as="geometry" />
        </mxCell>
        <mxCell id="pLBirmpmlKTclHateSVN-5" value="" style="whiteSpace=wrap;html=1;aspect=fixed;" parent="1" vertex="1">
          <mxGeometry x="477.5" y="380" width="94.44" height="94.44" as="geometry" />
        </mxCell>
        <mxCell id="pLBirmpmlKTclHateSVN-6" value="" style="shape=image;verticalLabelPosition=bottom;labelBackgroundColor=default;verticalAlign=top;aspect=fixed;imageAspect=0;image=https://github.com/kubernetes/community/raw/master/icons/png/resources/labeled/pod-128.png;" parent="1" vertex="1">
          <mxGeometry x="487.5" y="389.44" width="76.22" height="73.84" as="geometry" />
        </mxCell>
        <mxCell id="LJzudfufr4zjOk5fTNHp-1" value="&lt;b&gt;&lt;font style=&quot;font-size: 18px;&quot;&gt;Node&lt;/font&gt;&lt;/b&gt;" style="text;html=1;align=center;verticalAlign=middle;whiteSpace=wrap;rounded=0;" parent="1" vertex="1">
          <mxGeometry x="440" y="480" width="60" height="30" as="geometry" />
        </mxCell>
        <mxCell id="BYPtxXdyNNRhhLiztCib-2" value="" style="whiteSpace=wrap;html=1;aspect=fixed;" vertex="1" parent="1">
          <mxGeometry x="938.06" y="300" width="94.44" height="94.44" as="geometry" />
        </mxCell>
        <mxCell id="BYPtxXdyNNRhhLiztCib-3" value="" style="shape=image;verticalLabelPosition=bottom;labelBackgroundColor=default;verticalAlign=top;aspect=fixed;imageAspect=0;image=https://github.com/kubernetes/community/raw/master/icons/png/resources/labeled/pod-128.png;" vertex="1" parent="1">
          <mxGeometry x="946.28" y="309.44" width="78" height="75.56" as="geometry" />
        </mxCell>
        <mxCell id="BYPtxXdyNNRhhLiztCib-4" value="" style="whiteSpace=wrap;html=1;aspect=fixed;" vertex="1" parent="1">
          <mxGeometry x="1047.5" y="300" width="94.44" height="94.44" as="geometry" />
        </mxCell>
        <mxCell id="BYPtxXdyNNRhhLiztCib-5" value="" style="shape=image;verticalLabelPosition=bottom;labelBackgroundColor=default;verticalAlign=top;aspect=fixed;imageAspect=0;image=https://github.com/kubernetes/community/raw/master/icons/png/resources/labeled/pod-128.png;" vertex="1" parent="1">
          <mxGeometry x="1057.5" y="309.44" width="76.22" height="73.84" as="geometry" />
        </mxCell>
        <mxCell id="BYPtxXdyNNRhhLiztCib-6" value="&lt;b&gt;&lt;font style=&quot;font-size: 18px;&quot;&gt;Node&lt;/font&gt;&lt;/b&gt;" style="text;html=1;align=center;verticalAlign=middle;whiteSpace=wrap;rounded=0;" vertex="1" parent="1">
          <mxGeometry x="1010" y="400" width="60" height="30" as="geometry" />
        </mxCell>
        <mxCell id="BYPtxXdyNNRhhLiztCib-10" value="" style="ellipse;whiteSpace=wrap;html=1;" vertex="1" parent="1">
          <mxGeometry x="403.75" y="245" width="120" height="75" as="geometry" />
        </mxCell>
        <mxCell id="BYPtxXdyNNRhhLiztCib-9" value="cAdviser" style="rounded=0;whiteSpace=wrap;html=1;" vertex="1" parent="1">
          <mxGeometry x="433.75" y="270" width="62.5" height="30" as="geometry" />
        </mxCell>
        <mxCell id="BYPtxXdyNNRhhLiztCib-31" style="edgeStyle=orthogonalEdgeStyle;rounded=0;orthogonalLoop=1;jettySize=auto;html=1;exitX=0.5;exitY=0;exitDx=0;exitDy=0;entryX=0.5;entryY=1;entryDx=0;entryDy=0;" edge="1" parent="1" source="BYPtxXdyNNRhhLiztCib-11" target="BYPtxXdyNNRhhLiztCib-17">
          <mxGeometry relative="1" as="geometry" />
        </mxCell>
        <mxCell id="BYPtxXdyNNRhhLiztCib-11" value="&lt;b&gt;kubelet&lt;/b&gt;" style="text;html=1;align=center;verticalAlign=middle;whiteSpace=wrap;rounded=0;" vertex="1" parent="1">
          <mxGeometry x="433.75" y="245" width="60" height="30" as="geometry" />
        </mxCell>
        <mxCell id="BYPtxXdyNNRhhLiztCib-15" value="" style="endArrow=classic;html=1;rounded=0;entryX=0.5;entryY=1;entryDx=0;entryDy=0;" edge="1" parent="1" target="BYPtxXdyNNRhhLiztCib-10">
          <mxGeometry width="50" height="50" relative="1" as="geometry">
            <mxPoint x="390" y="380" as="sourcePoint" />
            <mxPoint x="440" y="330" as="targetPoint" />
          </mxGeometry>
        </mxCell>
        <mxCell id="BYPtxXdyNNRhhLiztCib-16" value="" style="endArrow=classic;html=1;rounded=0;exitX=0.75;exitY=0;exitDx=0;exitDy=0;entryX=0.5;entryY=1;entryDx=0;entryDy=0;" edge="1" parent="1" source="pLBirmpmlKTclHateSVN-5" target="BYPtxXdyNNRhhLiztCib-10">
          <mxGeometry width="50" height="50" relative="1" as="geometry">
            <mxPoint x="550" y="320" as="sourcePoint" />
            <mxPoint x="500" y="320" as="targetPoint" />
          </mxGeometry>
        </mxCell>
        <mxCell id="BYPtxXdyNNRhhLiztCib-21" style="edgeStyle=orthogonalEdgeStyle;rounded=0;orthogonalLoop=1;jettySize=auto;html=1;exitX=0.5;exitY=0;exitDx=0;exitDy=0;entryX=0.5;entryY=1;entryDx=0;entryDy=0;" edge="1" parent="1" source="BYPtxXdyNNRhhLiztCib-17" target="BYPtxXdyNNRhhLiztCib-20">
          <mxGeometry relative="1" as="geometry" />
        </mxCell>
        <mxCell id="BYPtxXdyNNRhhLiztCib-17" value="&lt;b&gt;metric server&lt;/b&gt;" style="rounded=1;whiteSpace=wrap;html=1;" vertex="1" parent="1">
          <mxGeometry x="403.75" y="150" width="120" height="60" as="geometry" />
        </mxCell>
        <mxCell id="BYPtxXdyNNRhhLiztCib-19" value="summary API" style="text;html=1;align=center;verticalAlign=middle;resizable=0;points=[];autosize=1;strokeColor=none;fillColor=none;" vertex="1" parent="1">
          <mxGeometry x="473.72" y="215" width="90" height="30" as="geometry" />
        </mxCell>
        <mxCell id="BYPtxXdyNNRhhLiztCib-20" value="&lt;b&gt;API server&lt;/b&gt;" style="rounded=1;whiteSpace=wrap;html=1;" vertex="1" parent="1">
          <mxGeometry x="403.75" y="60" width="120" height="60" as="geometry" />
        </mxCell>
        <mxCell id="BYPtxXdyNNRhhLiztCib-22" value="&lt;b&gt;kubectl top&lt;/b&gt;" style="text;html=1;align=center;verticalAlign=middle;resizable=0;points=[];autosize=1;strokeColor=none;fillColor=none;" vertex="1" parent="1">
          <mxGeometry x="414" y="10" width="90" height="30" as="geometry" />
        </mxCell>
        <mxCell id="BYPtxXdyNNRhhLiztCib-27" style="edgeStyle=orthogonalEdgeStyle;rounded=0;orthogonalLoop=1;jettySize=auto;html=1;exitX=0.5;exitY=0;exitDx=0;exitDy=0;entryX=0.522;entryY=1.033;entryDx=0;entryDy=0;entryPerimeter=0;" edge="1" parent="1" source="BYPtxXdyNNRhhLiztCib-20" target="BYPtxXdyNNRhhLiztCib-22">
          <mxGeometry relative="1" as="geometry" />
        </mxCell>
      </root>
    </mxGraphModel>
  </diagram>
</mxfile>
